<svg xmlns="http://www.w3.org/2000/svg" xmlns:xlink="http://www.w3.org/1999/xlink" version="1.1" x="0px" y="0px" viewBox="0 0 24 30" enable-background="new 0 0 24 24" xml:space="preserve"><g><path d="M20.515,18.634L20.509,4.735c-0.001-0.017-0.01-0.069-0.017-0.107c-0.003-0.016-0.006-0.031-0.01-0.047   c-0.023-0.089-0.06-0.171-0.095-0.224c-0.015-0.028-0.068-0.107-0.09-0.132l-3.532-3.966c-0.104-0.094-0.226-0.158-0.38-0.2   c-0.023-0.007-0.047-0.013-0.072-0.015c-0.049-0.008-0.107-0.016-0.131-0.016H4.778c-0.713,0-1.293,0.58-1.293,1.293v17.313   c0,0.712,0.58,1.292,1.293,1.292h0.882l-0.985,2.528c-0.057,0.147-0.001,0.307,0.11,0.418c0.111,0.112,0.296,0.141,0.446,0.085   c0.006-0.003,0.088-0.035,0.095-0.038l1.218-0.533l0.587,1.335c0.065,0.148,0.212,0.293,0.375,0.238   c0.162-0.003,0.306-0.104,0.364-0.255l0.941-2.431l0.94,2.431c0.059,0.151,0.202,0.252,0.364,0.255   c0.003,0.001,0.006,0.001,0.009,0.001c0.158,0,0.302-0.094,0.366-0.239l0.588-1.336l1.354,0.587   c0.146,0.057,0.315,0.021,0.426-0.093c0.111-0.112,0.146-0.279,0.089-0.427l-0.992-2.526h7.265   C19.935,19.926,20.515,19.346,20.515,18.634z M16.67,1.347l2.62,2.942l-2.621,0.004L16.67,1.347z M4.286,18.634V1.322   c0-0.271,0.221-0.492,0.492-0.492L15.87,0.838l-0.002,3.855c0,0.106,0.043,0.208,0.118,0.283c0.074,0.075,0.176,0.117,0.282,0.117   c0,0,0,0,0.001,0l3.44-0.006l0.004,13.546c0,0.271-0.221,0.491-0.492,0.491h-7.339c0.281-0.506,0.45-1.083,0.452-1.701   c0.001-0.938-0.364-1.821-1.03-2.488c-0.665-0.666-1.549-1.034-2.487-1.036c-0.001,0-0.002,0-0.004,0   c-1.938,0-3.518,1.575-3.523,3.514c-0.002,0.61,0.159,1.193,0.447,1.712H4.778C4.507,19.125,4.286,18.906,4.286,18.634z    M7.475,22.513l-0.241-0.548c-0.05-0.113-0.144-0.326-0.367-0.413c-0.065-0.025-0.131-0.035-0.192-0.035   c-0.146,0-0.272,0.056-0.352,0.091L5.77,21.851l0.699-1.796c0.47,0.418,1.032,0.699,1.64,0.821L7.475,22.513z M8.812,20.145   c-0.001,0-0.003,0-0.004,0c-0.728,0-1.411-0.284-1.924-0.799c-0.08-0.08-0.154-0.165-0.224-0.253   c-0.009-0.014-0.02-0.027-0.03-0.04c-0.353-0.47-0.542-1.039-0.54-1.638c0.004-1.498,1.226-2.715,2.723-2.715   c0.001,0,0.002,0,0.003,0c0.725,0.001,1.407,0.285,1.922,0.801c0.515,0.516,0.798,1.198,0.796,1.921   C11.531,18.924,10.311,20.145,8.812,20.145z M11.257,21.588c-0.377-0.166-0.683-0.043-0.848,0.334l-0.26,0.59l-0.634-1.638   c0.617-0.126,1.177-0.415,1.632-0.819l0.704,1.795L11.257,21.588z"/><path d="M6.878,7.379h10.244c0.221,0,0.4-0.18,0.4-0.4s-0.18-0.4-0.4-0.4H6.878c-0.221,0-0.4,0.18-0.4,0.4S6.657,7.379,6.878,7.379   z"/><path d="M6.878,9.063h10.244c0.221,0,0.4-0.18,0.4-0.4s-0.18-0.4-0.4-0.4H6.878c-0.221,0-0.4,0.18-0.4,0.4S6.657,9.063,6.878,9.063   z"/><path d="M6.878,10.747h10.244c0.221,0,0.4-0.18,0.4-0.4s-0.18-0.4-0.4-0.4H6.878c-0.221,0-0.4,0.18-0.4,0.4   S6.657,10.747,6.878,10.747z"/><path d="M6.878,12.43h10.244c0.221,0,0.4-0.18,0.4-0.4s-0.18-0.4-0.4-0.4H6.878c-0.221,0-0.4,0.18-0.4,0.4S6.657,12.43,6.878,12.43   z"/><path d="M17.122,13.313h-3.676c-0.221,0-0.4,0.18-0.4,0.4s0.18,0.4,0.4,0.4h3.676c0.221,0,0.4-0.18,0.4-0.4   S17.343,13.313,17.122,13.313z"/><path d="M17.122,14.997h-3.676c-0.221,0-0.4,0.18-0.4,0.4s0.18,0.4,0.4,0.4h3.676c0.221,0,0.4-0.18,0.4-0.4   S17.343,14.997,17.122,14.997z"/><path d="M8.753,15.467c-1.114,0-2.021,0.907-2.021,2.022s0.907,2.022,2.021,2.022c1.115,0,2.022-0.907,2.022-2.022   S9.868,15.467,8.753,15.467z M8.753,18.711c-0.673,0-1.221-0.548-1.221-1.222s0.548-1.222,1.221-1.222   c0.674,0,1.222,0.548,1.222,1.222S9.427,18.711,8.753,18.711z"/></g><text x="0" y="39" fill="#000000" font-size="5px" font-weight="bold" font-family="'Helvetica Neue', Helvetica, Arial-Unicode, Arial, Sans-serif">Created by Atif Arshad</text><text x="0" y="44" fill="#000000" font-size="5px" font-weight="bold" font-family="'Helvetica Neue', Helvetica, Arial-Unicode, Arial, Sans-serif">from the Noun Project</text></svg>