<svg xmlns="http://www.w3.org/2000/svg" xmlns:xlink="http://www.w3.org/1999/xlink" version="1.1" x="0px" y="0px" viewBox="0 0 60 75" style="enable-background:new 0 0 60 60;" xml:space="preserve"><path d="M6.999939,54c0.1328125,0,0.2670898-0.0263672,0.394043-0.0810547l13.3984375-5.7420654  c0.0004883-0.0001831,0.0009766-0.0003662,0.0014648-0.0006104l0.0170898-0.0073242  c0.1066895-0.0456543,0.1981201-0.1137695,0.2810669-0.1906738c0.0097046-0.0089722,0.022522-0.0118408,0.0319214-0.0212402  L43.416687,25.6643066l0.2512207,0.2512207c0.390625,0.390625,1.0234375,0.390625,1.4140625,0s0.390625-1.0234375,0-1.4140625  l-0.2512207-0.2512207l5.0432129-5.0432129c0.1875-0.1875,0.2929688-0.4418945,0.2929688-0.7070313  s-0.1054688-0.5195313-0.2929688-0.7070313l-1.2097778-1.2096558l5.0427856-5.0427856  c0.390625-0.390625,0.390625-1.0234375,0-1.4140625l-3.8330078-3.8334961C49.6864624,6.1054688,49.4320679,6,49.1669312,6  s-0.5195313,0.1054688-0.7070313,0.2929688l-5.0431519,5.0431519l-1.2097778-1.2096558  c-0.390625-0.390625-1.0234375-0.390625-1.4140625,0l-5.0427856,5.0427856l-3.1261597-3.1262817  c-0.1875-0.1875-0.4418945-0.2929688-0.7070313-0.2929688s-0.5195313,0.1054688-0.7070313,0.2929688l-14.375,14.375  c-0.390625,0.390625-0.390625,1.0234375,0,1.4140625C17.0302124,28.0273438,17.2860718,28.125,17.5419312,28.125  s0.5117188-0.0976563,0.7070313-0.2929688l13.6679688-13.6679688l2.4191284,2.4192505L12.0429077,38.8764648  c-0.0093384,0.0093384-0.0126343,0.022644-0.0216064,0.0323486c-0.0767212,0.0828247-0.1447144,0.1741333-0.1903076,0.2806396  l-5.75,13.4165039c-0.1611328,0.3759766-0.0771484,0.8120117,0.2119141,1.1010742C6.484314,53.8984375,6.7401733,54,6.999939,54z   M44.8309937,12.75l4.3359375-4.3359375l2.4189453,2.4194336l-4.3357544,4.3357544l-1.2096558-1.2095337L44.8309937,12.75z   M41.499939,12.2475586l3.1264648,3.1262207l1.9165039,1.916748c0.0003662,0.0003662,0.0007935,0.0004272,0.0011597,0.0007935  L47.7528687,18.5l-4.3361206,4.3361206l-6.2525635-6.2528076L41.499939,12.2475586z M42.0026855,24.2501831L20.4169312,45.8359375  l-3.1264648-3.1262207l-3.1264648-3.1262207l21.5861206-21.5861206L42.0026855,24.2501831z M13.0873413,41.3349609  l2.7890625,2.7888184l2.7890015,2.7888184l-9.7616577,4.1835938L13.0873413,41.3349609z"/><text x="0" y="75" fill="#000000" font-size="5px" font-weight="bold" font-family="'Helvetica Neue', Helvetica, Arial-Unicode, Arial, Sans-serif">Created by Vectorstall</text><text x="0" y="80" fill="#000000" font-size="5px" font-weight="bold" font-family="'Helvetica Neue', Helvetica, Arial-Unicode, Arial, Sans-serif">from the Noun Project</text></svg>