<?xml version="1.0" encoding="UTF-8"?>
<svg width="278px" height="67px" viewBox="0 0 278 67" version="1.1" xmlns="http://www.w3.org/2000/svg" xmlns:xlink="http://www.w3.org/1999/xlink">
    <!-- Generator: Sketch 52.2 (67145) - http://www.bohemiancoding.com/sketch -->
    <title>Group</title>
    <desc>Created with Sketch.</desc>
    <g id="Page-1" stroke="none" stroke-width="1" fill="none" fill-rule="evenodd">
        <g id="Group" fill="#000000">
            <g id="noun_machine-to-machine_3085666" fill-rule="nonzero">
                <path d="M55.5156972,28.7272727 C55.960331,28.5174825 56.376734,28.2377622 56.7296179,27.8811189 C57.5483086,27.0699301 58,25.993007 58,24.8461538 C58,23.6993007 57.5483086,22.6223776 56.7296179,21.8111888 C55.9109272,21 54.8240448,20.5524476 53.6665855,20.5524476 C52.5091263,20.5524476 51.4222439,21 50.6035532,21.8111888 C50.2647846,22.1468531 49.9965928,22.5244755 49.7919202,22.9300699 L39.9817474,20.8041958 C39.8970552,20.7832168 39.8123631,20.7832168 39.727671,20.7832168 C39.6570942,19.4405594 39.113653,18.1188811 38.0832319,17.0979021 C35.867121,14.9020979 32.267705,14.9090909 30.0586517,17.0979021 C29.9669019,17.1888112 29.8751521,17.2937063 29.79046,17.3916084 L11.1158433,7.23076923 C11.6875152,5.31468531 11.2146508,3.16083916 9.69019226,1.65034965 C8.61742516,0.587412587 7.19177415,0 5.67437333,0 C4.1569725,0 2.73132149,0.587412587 1.65855439,1.65034965 C0.585787296,2.71328671 0,4.12587413 0,5.62937063 C0,7.13286713 0.592844974,8.54545455 1.66561207,9.60839161 C2.73837917,10.6713287 4.16403018,11.2587413 5.68143101,11.2587413 C5.76612314,11.2587413 5.85787296,11.2517483 5.9425651,11.2447552 L13.6142614,43.1818182 C12.9931857,43.4615385 12.4215138,43.8391608 11.9204186,44.3356643 C9.70430762,46.5244755 9.70430762,50.0979021 11.9204186,52.2867133 C12.7391093,53.0979021 13.7624726,53.6293706 14.8775858,53.8321678 L14.8775858,56.7202797 L5.98491117,56.7202797 C5.39912387,56.7202797 4.92625943,57.1888112 4.92625943,57.7692308 L4.92625943,63.951049 C4.92625943,64.5314685 5.39912387,65 5.98491117,65 L25.8946216,65 C26.4804089,65 26.9532733,64.5314685 26.9532733,63.951049 L26.9532733,57.7692308 C26.9532733,57.1888112 26.4804089,56.7202797 25.8946216,56.7202797 L17.0019469,56.7202797 L17.0019469,53.8321678 C18.1170601,53.6223776 19.1404235,53.0979021 19.9591141,52.2867133 C21.0318812,51.2237762 21.6247262,49.8111888 21.6247262,48.3076923 C21.6247262,46.8041958 21.0318812,45.3916084 19.9591141,44.3286713 C18.886347,43.2657343 17.460696,42.6783217 15.9432952,42.6783217 C15.8586031,42.6783217 15.7668532,42.6853147 15.6821611,42.6923077 L7.99634948,10.7552448 C8.61742516,10.4755245 9.1890971,10.0979021 9.69019226,9.6013986 C9.85251886,9.44055944 10.0007301,9.26573427 10.1418837,9.09090909 L28.7318082,19.2027972 C28.0330981,21.1818182 28.4706741,23.4685315 30.0657094,25.048951 C31.0961304,26.0699301 32.4300316,26.6083916 33.7851059,26.6783217 C33.7851059,26.7622378 33.7851059,26.8461538 33.8062789,26.9230769 L35.9518131,36.6433566 C35.5354101,36.8461538 35.1542954,37.1188811 34.8225846,37.4475524 C34.0038939,38.2587413 33.5522025,39.3356643 33.5522025,40.4825175 C33.5522025,41.6293706 34.0038939,42.7062937 34.8225846,43.5174825 C35.6412752,44.3286713 36.7281577,44.7762238 37.8856169,44.7762238 C39.0430762,44.7762238 40.1299586,44.3286713 40.9486493,43.5174825 C41.3085909,43.1608392 41.590898,42.7552448 41.8026284,42.3146853 L52.4032611,44.6153846 C52.4808956,44.6293706 52.5585301,44.6433566 52.6291068,44.6433566 C53.1160866,44.6433566 53.5536627,44.3076923 53.6595279,43.8181818 C53.7865661,43.2517483 53.4195668,42.6923077 52.8549525,42.5664336 L42.1978584,40.2657343 C42.1413969,39.2027972 41.7038209,38.2097902 40.9415916,37.4545455 C40.1581893,36.6783217 39.1207106,36.2377622 38.0126551,36.2027972 L35.867121,26.4825175 C35.8600633,26.4545455 35.8530056,26.4335664 35.8459479,26.4125874 C36.6646386,26.1468531 37.4409832,25.6993007 38.0902896,25.0559441 C38.739596,24.4125874 39.1983451,23.6433566 39.4594792,22.8321678 C39.4806522,22.8391608 39.5088829,22.8531469 39.530056,22.8531469 L49.3402288,24.979021 C49.3755172,26.0769231 49.8201509,27.1048951 50.6035532,27.8811189 C51.3657824,28.6363636 52.3679727,29.0699301 53.4407398,29.1258741 L55.7697737,39.6713287 C55.8756388,40.1608392 56.3132149,40.4965035 56.8001947,40.4965035 C56.8778292,40.4965035 56.9484059,40.4895105 57.0260404,40.4685315 C57.5977123,40.3426573 57.9576539,39.7832168 57.8306157,39.2167832 L55.5156972,28.7272727 Z M24.8289121,58.8181818 L24.8289121,62.9020979 L7.04356291,62.9020979 L7.04356291,58.8181818 L15.9362375,58.8181818 L24.8289121,58.8181818 Z M18.448771,45.8181818 C19.1192504,46.4825175 19.4933074,47.3706294 19.4933074,48.3076923 C19.4933074,49.2447552 19.1263081,50.1328671 18.448771,50.7972028 C17.7712339,51.4615385 16.8819664,51.8321678 15.9362375,51.8321678 C14.983451,51.8321678 14.0941835,51.4685315 13.4237041,50.7972028 C12.0333414,49.4195804 12.0333414,47.1888112 13.4237041,45.8111888 C14.0941835,45.1468531 14.9905086,44.7762238 15.9362375,44.7762238 C16.8890241,44.7902098 17.7782916,45.1538462 18.448771,45.8181818 Z M5.67437333,9.15384615 C4.72158676,9.15384615 3.8323193,8.79020979 3.16183986,8.11888112 C2.49136043,7.44755245 2.11730348,6.56643357 2.11730348,5.62937063 C2.11730348,4.69230769 2.48430275,3.8041958 3.16183986,3.13986014 C3.83937698,2.47552448 4.72864444,2.1048951 5.67437333,2.1048951 C6.62715989,2.1048951 7.51642735,2.46853147 8.18690679,3.13986014 C9.57726941,4.51748252 9.57726941,6.74825175 8.18690679,8.12587413 C7.51642735,8.79020979 6.62715989,9.15384615 5.67437333,9.15384615 Z M39.4453638,42.048951 C38.5843271,42.9090909 37.1727914,42.9090909 36.3117547,42.048951 C35.4436603,41.1888112 35.4436603,39.7972028 36.3117547,38.9440559 C36.7422731,38.5174825 37.313945,38.3006993 37.8785593,38.3006993 C38.4502312,38.3006993 39.0148455,38.5174825 39.4453638,38.9440559 C40.3064006,39.7972028 40.3064006,41.1888112 39.4453638,42.048951 Z M36.5870041,23.5664336 C35.2036992,24.9440559 32.9452422,24.9440559 31.5548795,23.5664336 C30.1645169,22.1888112 30.1645169,19.958042 31.5548795,18.5804196 C32.246532,17.8951049 33.1569725,17.5524476 34.067413,17.5524476 C34.9778535,17.5524476 35.888294,17.8951049 36.5799465,18.5804196 C37.9703091,19.958042 37.9703091,22.1958042 36.5870041,23.5664336 Z M52.099781,23.2937063 C52.5302993,22.8671329 53.1019713,22.6503497 53.6665855,22.6503497 C54.2382575,22.6503497 54.8028717,22.8671329 55.2333901,23.2937063 C56.1014845,24.1538462 56.1014845,25.5454545 55.2333901,26.3986014 C54.3723534,27.2587413 52.9608177,27.2587413 52.099781,26.3986014 C51.2316865,25.5454545 51.2316865,24.1468531 52.099781,23.2937063 Z" id="Shape"></path>
            </g>
            <text id="ProjectLab-by-Artile" font-family="AmericanTypewriter, American Typewriter" font-size="24" font-weight="normal">
                <tspan x="56" y="62">ProjectLab </tspan>
            </text>
        </g>
    </g>
</svg>