<svg xmlns="http://www.w3.org/2000/svg" xmlns:xlink="http://www.w3.org/1999/xlink" version="1.1" x="0px" y="0px" viewBox="0 0 100 125" enable-background="new 0 0 100 100" xml:space="preserve"><g><path d="M81.688,78.914c-0.706-0.735-1.658-1.14-2.677-1.14c-0.964,0-1.878,0.368-2.576,1.04l-0.096,0.093   c-1.477,1.419-1.524,3.776-0.104,5.253l2.193,2.279c0.706,0.736,1.658,1.141,2.678,1.141c0.964,0,1.878-0.368,2.569-1.032   l0.105-0.1c1.475-1.42,1.521-3.776,0.102-5.252L81.688,78.914z M82.067,84.658l-0.104,0.1c-0.477,0.458-1.291,0.443-1.75-0.035   l-2.193-2.279c-0.473-0.492-0.458-1.278,0.037-1.754l0.096-0.094c0.232-0.222,0.536-0.346,0.858-0.346   c0.34,0,0.657,0.135,0.893,0.38l2.193,2.281C82.569,83.404,82.554,84.19,82.067,84.658z"/><path d="M88.964,79.183c0,0-27.568-30.498-29.887-33.067c-6.131-6.787-8.453-11.598-7.306-15.142c0-0.001,0-0.002,0-0.003   l2.139-6.617c0.136-0.421,0.037-0.883-0.259-1.211L39.098,7.031c-0.296-0.328-0.746-0.473-1.178-0.381L26.21,9.157   c-0.432,0.093-0.783,0.409-0.919,0.83c-0.136,0.421-0.037,0.883,0.259,1.211l14.072,15.581l-2.554,7.903l-8.12,1.739L14.875,20.839   c-0.297-0.328-0.745-0.472-1.178-0.381c-0.432,0.093-0.783,0.409-0.919,0.83L9.095,32.684c-0.136,0.421-0.037,0.883,0.259,1.211   l14.552,16.112c0.237,0.263,0.573,0.408,0.919,0.408c0.086,0,0.173-0.009,0.259-0.027l6.803-1.457c0.001,0,0.001,0,0.002,0   c3.683-0.79,8.158,1.98,14.322,8.805l29.875,33.079c1.471,1.628,3.574,2.562,5.77,2.562c0,0,0,0,0.001,0   c1.927,0,3.776-0.713,5.207-2.005l1.343-1.212C91.586,87.287,91.837,82.362,88.964,79.183z M31.114,46.564l-5.849,1.253   L11.671,32.765l2.804-8.676L27.59,38.611c0.297,0.328,0.746,0.474,1.178,0.381l9.518-2.038c0.432-0.093,0.783-0.409,0.919-0.83   l2.994-9.263c0.136-0.421,0.037-0.883-0.259-1.211L28.826,11.13l8.914-1.909l13.594,15.051l-1.839,5.689l-8.474,9.384   L31.114,46.564z M42.583,41.271c0.069-0.05,0.133-0.108,0.19-0.171l4.863-5.385l-2.539,7.855l-8.028,1.719L42.583,41.271z    M86.747,88.322l-1.343,1.212c-0.975,0.881-2.235,1.366-3.547,1.366c-1.497,0-2.931-0.637-3.933-1.746L48.049,56.076   c-3.827-4.237-7.068-6.997-10.003-8.464l8.268-1.771c0.432-0.093,0.783-0.409,0.919-0.83l2.603-8.054   c1.175,3.084,3.608,6.616,7.403,10.818c2.32,2.569,29.888,33.068,29.888,33.068C89.084,83.009,88.914,86.364,86.747,88.322z"/></g><text x="0" y="115" fill="#000000" font-size="5px" font-weight="bold" font-family="'Helvetica Neue', Helvetica, Arial-Unicode, Arial, Sans-serif">Created by Ines Simoes</text><text x="0" y="120" fill="#000000" font-size="5px" font-weight="bold" font-family="'Helvetica Neue', Helvetica, Arial-Unicode, Arial, Sans-serif">from the Noun Project</text></svg>